<svg width="21" height="20" viewBox="0 0 21 20" fill="none" xmlns="http://www.w3.org/2000/svg">
<path d="M10.0343 0C4.49871 0 0 4.48333 0 9.99999C0 15.5167 4.49871 20 10.0343 20C10.6614 20 11.2719 19.9416 11.8739 19.8333L11.1882 17.7833C11.0879 17.8833 10.9792 17.9666 10.8705 18.0416V16.825L9.31518 12.1833C9.23156 11.9417 9.19811 11.6917 9.19811 11.45V13.1417C8.40373 13.175 7.62607 13.2417 6.89022 13.3667C6.73971 12.5833 6.63936 11.7333 6.59755 10.8167H9.19811V11.45C9.19811 10.8583 9.43225 10.2833 9.87543 9.84166C10.3019 9.40832 10.8789 9.16666 11.4976 9.16666C11.7485 9.16666 11.991 9.20832 12.2335 9.28332L16.8409 10.8167H18.3544C18.3377 10.9833 18.321 11.1417 18.2875 11.3L19.9014 11.8333C20.0101 11.2333 20.0686 10.625 20.0686 9.99999C20.0686 4.48333 15.5699 0 10.0343 0ZM9.19811 14.8083V18.0416C8.47899 17.5583 7.79331 16.4916 7.30832 14.9833C7.91874 14.8917 8.54588 14.8333 9.19811 14.8083ZM3.01029 5.49166C3.67924 5.80833 4.43182 6.07499 5.25129 6.29166C5.07569 7.18333 4.96698 8.14166 4.92517 9.14999H1.71419C1.84798 7.81666 2.31625 6.57499 3.01029 5.49166ZM1.71419 10.8167H4.92517C4.96698 11.8417 5.07569 12.8083 5.25129 13.7083C4.43182 13.925 3.67924 14.1917 3.01029 14.5083C2.28938 13.3982 1.84501 12.1325 1.71419 10.8167ZM6.63936 17.6083C5.68644 17.1862 4.82136 16.5898 4.08898 15.85C4.56561 15.6417 5.09241 15.4667 5.65266 15.325C5.92024 16.1833 6.25472 16.9583 6.63936 17.6083ZM5.65266 4.675C5.09241 4.53333 4.56561 4.35833 4.08898 4.15C4.81647 3.41666 5.67774 2.81666 6.63936 2.39166C6.25472 3.04166 5.92024 3.81666 5.65266 4.675ZM9.19811 9.14999H6.59755C6.63936 8.24999 6.73971 7.40833 6.89022 6.63333C7.62607 6.75833 8.40373 6.82499 9.19811 6.85833V9.14999ZM9.19811 5.19166C8.54588 5.16666 7.91874 5.10833 7.30832 5.01666C7.79331 3.50833 8.47899 2.44166 9.19811 1.95833V5.19166ZM10.8705 1.95833C11.5896 2.44166 12.2753 3.50833 12.7603 5.01666C12.1499 5.10833 11.5227 5.16666 10.8705 5.19166V1.95833ZM10.8705 9.14999V6.85833C11.6649 6.82499 12.4425 6.75833 13.1784 6.63333C13.3289 7.40833 13.4292 8.24999 13.4711 9.14999H10.8705ZM13.4292 2.39166C14.3909 2.81666 15.2521 3.41666 15.9796 4.15C15.503 4.35833 14.9762 4.53333 14.4159 4.675C14.1484 3.81666 13.8139 3.04166 13.4292 2.39166ZM15.1434 9.14999C15.1016 8.14166 14.9929 7.18333 14.8173 6.29166C15.6368 6.07499 16.3894 5.80833 17.0583 5.49166C17.7524 6.57499 18.2206 7.81666 18.3544 9.14999H15.1434Z" fill="#F1C6C0"/>
<path d="M14.1458 20.0002H14.1316C14.0024 19.9973 13.8773 19.9547 13.7734 19.8781C13.6695 19.8016 13.5919 19.6949 13.5513 19.5727L10.903 11.656C10.8661 11.5459 10.8607 11.4277 10.8875 11.3146C10.9142 11.2016 10.972 11.0982 11.0544 11.0161C11.1368 10.9339 11.2406 10.8763 11.354 10.8497C11.4674 10.823 11.5861 10.8284 11.6966 10.8652L19.6404 13.5044C19.7628 13.5452 19.8696 13.6226 19.9462 13.7262C20.0228 13.8297 20.0655 13.9543 20.0684 14.0829C20.0714 14.2115 20.0344 14.3379 19.9626 14.4448C19.8908 14.5517 19.7876 14.6339 19.6672 14.6802L16.1025 16.0469L14.7311 19.5994C14.6857 19.7173 14.6054 19.8188 14.5009 19.8903C14.3964 19.9619 14.2726 20.0002 14.1458 20.0002Z" fill="#F1C6C0"/>
</svg>
