<?xml version="1.0" encoding="UTF-8"?>
<svg id="Camada_2" data-name="Camada 2" xmlns="http://www.w3.org/2000/svg" viewBox="0 0 362.43 127.73">
  <defs>
    <style>
      .cls-1 {
        stroke: #233568;
        stroke-miterlimit: 10;
      }

      .cls-1, .cls-2 {
        fill: #233568;
      }

      .cls-2 {
        stroke-width: 0px;
      }
    </style>
  </defs>
  <g id="Camada_1-2" data-name="Camada 1">
    <path class="cls-2" d="M320.72,63.32c3.23-1.7,5.45-5.09,5.45-8.97,0-5.58-4.56-10.14-10.14-10.14l-44.38.27v38.35h44.93s9.59-1.03,9.59-10.55h0c0-3.88-2.22-7.27-5.45-8.97ZM319.18,71.68c0,2.31-1.87,4.18-4.18,4.18h-36.51v-8.36h36.51c2.31,0,4.18,1.87,4.18,4.18h0ZM315,59.96h-36.51v-8.36h36.51c2.31,0,4.18,1.87,4.18,4.18s-1.87,4.18-4.18,4.18Z"/>
    <path class="cls-1" d="M75.66,70.96c-2.66,0-4.8-.68-6.38-2.02-2.54-2.16-2.63-5.22-2.63-5.35l1.66-.04-.83.02.83-.02s.1,2.48,2.07,4.15c1.69,1.43,6.42,1.88,9.81,1.41l.23,1.64c-.91.13-3.93.22-4.74.22Z"/>
    <g>
      <path class="cls-2" d="M0,55.55h17.87c.94,0,1.74.11,2.4.32.66.21,1.2.5,1.62.87.42.36.72.8.91,1.3.19.5.29,1.04.29,1.62,0,.79-.18,1.5-.55,2.13s-.95,1.11-1.75,1.45c1.22.27,2.09.78,2.63,1.52.54.74.81,1.58.81,2.52,0,.59-.1,1.14-.3,1.65-.2.51-.51.96-.93,1.34-.43.39-.98.69-1.65.91-.68.22-1.49.33-2.45.33H0v-15.96ZM19.74,60.36c0-.24-.04-.48-.12-.71-.08-.23-.23-.43-.43-.59-.21-.17-.48-.3-.83-.4-.35-.1-.8-.15-1.35-.15H3.26v3.67h13.79c.53,0,.97-.05,1.32-.15s.63-.23.83-.4c.21-.17.35-.36.42-.58.08-.22.11-.45.11-.7ZM3.26,64.87v3.67h14.77c.55,0,1-.05,1.34-.15s.63-.24.83-.41.35-.37.42-.59c.08-.22.11-.45.11-.7s-.04-.47-.11-.7c-.08-.22-.22-.41-.42-.58s-.48-.3-.83-.4c-.35-.1-.8-.15-1.34-.15H3.26Z"/>
      <path class="cls-2" d="M48.85,68.72h-16.48l-2.19,2.78h-4.03l12.72-15.96h3.49l12.74,15.96h-4.03l-2.21-2.78ZM34.51,66.03h12.19l-6.11-7.7-6.09,7.7Z"/>
      <path class="cls-2" d="M57.97,55.55h17.32c1.19,0,2.19.14,3.02.41s1.5.65,2.03,1.12.91,1.02,1.15,1.65c.24.63.36,1.3.36,2.02s-.12,1.41-.36,2.03c-.24.62-.63,1.17-1.15,1.64s-1.2.84-2.03,1.11-1.83.4-3.02.4h-14.06v5.58h-3.26v-15.96ZM61.23,58.51v4.45h13.97c.65,0,1.19-.06,1.61-.17s.75-.27.99-.47c.24-.2.41-.43.5-.71s.14-.56.14-.87-.05-.59-.14-.87-.26-.51-.5-.72c-.24-.21-.57-.37-.99-.48-.42-.11-.95-.17-1.61-.17h-13.97Z"/>
      <path class="cls-2" d="M97.92,62.66l14.11,8.84h-5.54l-11.44-7.13-6.56,3.88v3.26h-3.26v-15.96h3.26v9.46l15.8-9.46h5.68l-12.04,7.11Z"/>
      <path class="cls-2" d="M114.79,55.55h22.86v2.96h-19.6v3.67h17.28v2.69h-17.28v3.67h19.6v2.96h-22.86v-15.96Z"/>
      <path class="cls-2" d="M145.38,68.54h19.15v2.96h-22.41v-15.96h3.26v12.99Z"/>
      <path class="cls-2" d="M167.86,55.55h22.86v2.96h-19.6v3.67h17.28v2.69h-17.28v3.67h19.6v2.96h-22.86v-15.96Z"/>
      <path class="cls-2" d="M205.12,66.69l-12.72-11.15h4.83l9.5,8.53,9.53-8.53h4.83l-12.72,11.15v4.81h-3.26v-4.81Z"/>
    </g>
    <g>
      <path class="cls-2" d="M90.13,79.17h7.96v1.03h-6.83v1.28h6.02v.94h-6.02v1.28h6.83v1.03h-7.96v-5.56Z"/>
      <path class="cls-2" d="M100.78,80.49v4.23h-1.14v-5.56h1.08l6.28,4.23v-4.23h1.13v5.56h-1.08l-6.28-4.23Z"/>
      <path class="cls-2" d="M114.33,81.48h3.98v3.25h-5.15c-.63,0-1.17-.07-1.61-.22s-.8-.34-1.08-.6-.49-.55-.61-.88c-.13-.34-.19-.7-.19-1.08s.06-.74.19-1.08c.13-.34.33-.63.61-.88s.64-.45,1.08-.6c.44-.14.98-.22,1.61-.22h4.71v1.03h-4.71c-.44,0-.81.05-1.11.14-.29.09-.53.22-.71.38-.18.16-.3.34-.37.56-.07.21-.11.44-.11.67s.04.46.11.67c.07.21.2.4.37.56.18.16.41.29.71.38.29.09.66.14,1.11.14h4.03v-1.28h-2.87v-.94Z"/>
      <path class="cls-2" d="M121.13,83.69h6.67v1.03h-7.8v-5.56h1.14v4.52Z"/>
      <path class="cls-2" d="M128.96,79.17h1.14v5.56h-1.14v-5.56Z"/>
      <path class="cls-2" d="M131.9,83.69h6.06c.19,0,.35-.02.46-.05.12-.04.21-.08.28-.14.07-.06.11-.13.14-.21.02-.08.04-.16.04-.24s-.01-.17-.04-.24c-.02-.08-.07-.14-.14-.2-.07-.06-.16-.1-.28-.14-.12-.03-.27-.05-.46-.05h-4.29c-.38,0-.7-.04-.96-.12-.26-.08-.48-.2-.65-.35-.17-.15-.29-.32-.37-.52-.08-.2-.11-.41-.11-.64s.04-.44.11-.63c.08-.2.2-.37.37-.51s.38-.26.65-.35c.26-.08.58-.13.96-.13h6.08v1.03h-6.06c-.19,0-.35.02-.46.05-.12.04-.21.08-.28.14-.07.06-.11.13-.14.21s-.04.16-.04.24.01.17.04.24c.02.08.07.14.14.2s.16.1.28.14c.12.03.27.05.46.05h4.29c.38,0,.7.04.96.12s.48.2.65.34c.17.15.29.32.37.52s.11.41.11.64-.04.44-.11.63c-.08.2-.2.37-.37.51-.17.15-.38.26-.65.35s-.58.13-.96.13h-6.08v-1.03Z"/>
      <path class="cls-2" d="M148.89,82.46h-6.2v2.26h-1.14v-5.56h1.14v2.26h6.2v-2.26h1.14v5.56h-1.14v-2.26Z"/>
      <path class="cls-2" d="M157.36,83.69h6.06c.19,0,.35-.02.46-.05.12-.04.21-.08.28-.14.07-.06.11-.13.14-.21.02-.08.04-.16.04-.24s-.01-.17-.04-.24c-.02-.08-.07-.14-.14-.2-.07-.06-.16-.1-.28-.14-.12-.03-.27-.05-.46-.05h-4.29c-.38,0-.7-.04-.96-.12-.26-.08-.48-.2-.65-.35-.17-.15-.29-.32-.37-.52-.08-.2-.11-.41-.11-.64s.04-.44.11-.63c.08-.2.2-.37.37-.51s.38-.26.65-.35c.26-.08.58-.13.96-.13h6.08v1.03h-6.06c-.19,0-.35.02-.46.05-.12.04-.21.08-.28.14-.07.06-.11.13-.14.21s-.04.16-.04.24.01.17.04.24c.02.08.07.14.14.2s.16.1.28.14c.12.03.27.05.46.05h4.29c.38,0,.7.04.96.12s.48.2.65.34c.17.15.29.32.37.52s.11.41.11.64-.04.44-.11.63c-.08.2-.2.37-.37.51-.17.15-.38.26-.65.35s-.58.13-.96.13h-6.08v-1.03Z"/>
      <path class="cls-2" d="M167.86,81.94c0,.24.04.46.11.67.07.21.2.4.37.56.18.16.41.29.71.38.29.09.66.14,1.11.14h4.71v1.03h-4.71c-.63,0-1.17-.07-1.61-.22s-.8-.34-1.08-.6-.49-.55-.61-.88c-.13-.34-.19-.7-.19-1.08s.06-.74.19-1.08c.13-.34.33-.63.61-.88s.64-.45,1.08-.6c.44-.14.98-.22,1.61-.22h4.71v1.03h-4.71c-.44,0-.81.05-1.11.14-.29.09-.53.22-.71.38-.18.16-.3.34-.37.56-.07.21-.11.44-.11.67Z"/>
      <path class="cls-2" d="M183.75,82.46h-6.2v2.26h-1.14v-5.56h1.14v2.26h6.2v-2.26h1.14v5.56h-1.14v-2.26Z"/>
      <path class="cls-2" d="M190.01,84.8c-.65,0-1.2-.08-1.65-.23-.46-.15-.83-.35-1.12-.61-.29-.26-.5-.56-.63-.91-.13-.35-.2-.72-.2-1.12s.07-.77.2-1.11c.13-.35.34-.65.63-.91.29-.26.66-.46,1.12-.61.46-.15,1.01-.23,1.65-.23h2.35c.65,0,1.2.08,1.65.23.46.15.83.35,1.12.61.29.26.5.56.63.91s.2.72.2,1.11-.07.77-.2,1.12c-.13.35-.34.65-.63.91-.29.26-.66.46-1.12.61-.46.15-1.01.23-1.65.23h-2.35ZM192.35,83.77c.46,0,.85-.05,1.15-.14.31-.09.56-.23.74-.39.18-.17.31-.36.39-.58s.12-.46.12-.71-.04-.49-.12-.71-.21-.41-.39-.58c-.18-.17-.43-.3-.74-.39-.31-.1-.69-.14-1.15-.14h-2.33c-.47,0-.85.05-1.16.14-.31.09-.56.23-.74.39-.19.17-.32.36-.39.58-.08.22-.12.46-.12.71s.04.49.12.71c.08.22.21.41.39.58s.43.3.74.39c.31.1.69.14,1.15.14h2.33Z"/>
      <path class="cls-2" d="M200.7,84.8c-.65,0-1.2-.08-1.65-.23-.46-.15-.83-.35-1.12-.61-.29-.26-.5-.56-.63-.91-.13-.35-.2-.72-.2-1.12s.07-.77.2-1.11c.13-.35.34-.65.63-.91.29-.26.66-.46,1.12-.61.46-.15,1.01-.23,1.65-.23h2.35c.65,0,1.2.08,1.65.23.46.15.83.35,1.12.61.29.26.5.56.63.91s.2.72.2,1.11-.07.77-.2,1.12c-.13.35-.34.65-.63.91-.29.26-.66.46-1.12.61-.46.15-1.01.23-1.65.23h-2.35ZM203.05,83.77c.46,0,.85-.05,1.15-.14.31-.09.56-.23.74-.39.18-.17.31-.36.39-.58s.12-.46.12-.71-.04-.49-.12-.71-.21-.41-.39-.58c-.18-.17-.43-.3-.74-.39-.31-.1-.69-.14-1.15-.14h-2.33c-.47,0-.85.05-1.16.14-.31.09-.56.23-.74.39-.19.17-.32.36-.39.58-.08.22-.12.46-.12.71s.04.49.12.71c.08.22.21.41.39.58s.43.3.74.39c.31.1.69.14,1.15.14h2.33Z"/>
      <path class="cls-2" d="M209.31,83.69h6.67v1.03h-7.8v-5.56h1.14v4.52Z"/>
    </g>
    <path class="cls-2" d="M298.56,127.73c-35.22,0-63.87-28.65-63.87-63.87S263.35,0,298.56,0s63.87,28.65,63.87,63.87-28.65,63.87-63.87,63.87ZM298.56,3.22c-33.44,0-60.65,27.21-60.65,60.65s27.21,60.65,60.65,60.65,60.65-27.21,60.65-60.65S332,3.22,298.56,3.22Z"/>
  </g>
</svg>